# xmcd
#
# Track frame offsets: 
#        150
#        14400
#        35460
#        50942
#        68505
#        87705
#        104652
#        119190
#        198795
#        199545
#        200295
#        201045
#        213195
#
# Disc length: 2888 seconds
#
# Revision: 0
# Processed by: cddbd v1.5.1PL0 Copyright (c) Steve Scherf et al.
# Submitted via: ExactAudioCopy v0.95a4
#
DISCID=c20b460d
DTITLE=Alan Jackson - What I Do
DYEAR=2004
DGENRE=Country
TTITLE0=Too Much A Good Thing
TTITLE1=Rainy Day In June
TTITLE2=USA Today
TTITLE3=If Love Was A River
TTITLE4=If French Fries Were F Freeat
TTITLE5=You Don't Have To Paint Me A Picture
TTITLE6=There Ya Go
TTITLE7=The Talkin' Song Repair Blues
TTITLE8=Strong Enough
TTITLE9=Monday Morning Church
TTITLE10=Burning' The Honlky Tonks Down
TTITLE11=To Do What I Do
TTITLE12=Bonus
EXTD=
EXTT0=
EXTT1=
EXTT2=
EXTT3=
EXTT4=
EXTT5=
EXTT6=
EXTT7=
EXTT8=
EXTT9=
EXTT10=
EXTT11=
EXTT12=
PLAYORDER=
